<svg xmlns="http://www.w3.org/2000/svg" width="197" height="76.35036496350365" viewBox="0 0 197 76.35036496350365" class="editor-view__logo-preview" data-v-719f541d="" data-v-42122950=""><svg id="mark" viewBox="0 0 548 523" width="80" height="76.35036496350365" x="0" y="0" data-v-719f541d="" style="fill: rgb(0, 0, 0);"><rect x="0" y="0" width="100%" height="100%" fill="none" data-v-719f541d=""></rect><g data-v-719f541d="">
	<path xmlns="http://www.w3.org/2000/svg" d="M 253 5.035 C 216.603 8.482, 185.544 17.188, 153.500 32.924 C 123.478 47.668, 97.106 66.942, 72.453 92.156 C 43.730 121.533, 25.302 151.261, 15.656 183.781 C 14.794 186.686, 14.491 188.815, 14.982 188.511 C 15.473 188.208, 17.981 184.491, 20.554 180.252 C 30.212 164.344, 43.778 148.642, 59.396 135.294 C 79.008 118.532, 85.501 115.026, 100 113.364 C 104.223 112.880, 104.638 113.053, 106.737 116.174 C 107.968 118.003, 110.652 121.260, 112.702 123.411 C 114.752 125.562, 116.514 127.895, 116.617 128.594 C 116.835 130.083, 136.570 156.265, 141.162 161.158 C 145.621 165.910, 177.627 216.079, 206.654 263.817 C 215.121 277.742, 224.062 292.137, 226.524 295.807 C 228.986 299.476, 231 303.028, 231 303.700 C 231 304.372, 230.124 305.739, 229.052 306.737 C 227.680 308.015, 227.380 308.987, 228.037 310.026 C 228.836 311.289, 228.972 311.267, 228.985 309.872 C 228.993 308.977, 229.675 307.685, 230.500 307 C 231.768 305.947, 232 306.160, 232 308.378 C 232 310.700, 232.394 311, 235.443 311 C 238.209 311, 239.236 311.591, 240.659 314 C 241.634 315.650, 242.672 316.984, 242.966 316.965 C 244.116 316.888, 247.872 314.458, 247.934 313.750 C 248.030 312.655, 248.249 312.633, 251 313.439 C 252.375 313.843, 254.510 315.371, 255.745 316.836 C 257.537 318.963, 257.991 319.147, 257.995 317.750 C 257.999 316.505, 258.794 316.004, 260.750 316.015 C 264.030 316.034, 265.409 316.859, 266.333 319.358 C 266.985 321.121, 267.153 321.130, 269.597 319.528 C 273.276 317.118, 273.792 318.444, 271.127 323.466 C 266.856 331.517, 262.014 333.986, 260.659 328.805 C 260.148 326.850, 259.993 326.891, 257.558 329.624 L 254.994 332.500 253.076 330.237 C 252.021 328.992, 250.897 327.417, 250.579 326.737 C 250.122 325.760, 249.877 325.765, 249.415 326.756 C 249.093 327.447, 248.418 327.758, 247.915 327.447 C 247.412 327.136, 247 328.243, 247 329.906 C 247 331.962, 246.322 333.292, 244.883 334.062 C 242.113 335.545, 241.455 334.800, 235.393 323.311 C 232.726 318.258, 230.392 314.275, 230.206 314.460 C 229.795 314.871, 235.401 326.081, 238.460 330.963 C 239.678 332.908, 240.974 336.023, 241.340 337.885 C 242.178 342.154, 245.739 348, 247.502 348 C 248.239 348, 249.138 346.650, 249.500 345 C 249.862 343.350, 250.573 342, 251.079 342 C 251.586 342, 253.800 343.800, 256 346 C 259.159 349.159, 260 349.605, 260 348.122 C 260 347.090, 260.677 345.683, 261.504 344.997 C 263.137 343.641, 274.840 343.165, 276.797 344.374 C 277.542 344.835, 278 347.685, 278 351.863 C 278 364.335, 270.531 374.347, 250.669 388.500 C 245.089 392.476, 238.586 398.193, 235.615 401.735 C 229.189 409.397, 223.303 421.054, 221.493 429.702 C 220.746 433.276, 219.905 436.428, 219.626 436.708 C 219.346 436.987, 216.499 435.626, 213.299 433.682 C 210.099 431.738, 203.885 428.902, 199.490 427.380 C 192.633 425.006, 189.940 424.615, 180.500 424.623 C 167.625 424.635, 160.249 426.330, 148.500 431.977 C 140.120 436.005, 128.037 445.543, 121.798 453.055 L 118.194 457.393 112.347 452.959 C 104.047 446.666, 75.716 418.046, 68 408.159 C 39.331 371.426, 21.366 330.408, 14.059 285 C 10.123 260.535, 8.581 227.083, 10.529 208.385 C 11.536 198.714, 10.303 200.873, 7.983 212.840 C 4.835 229.081, 3.753 248.639, 4.972 267.266 C 6.109 284.636, 6.164 285.090, 9.100 300.876 C 13.756 325.916, 19.959 344.229, 31.420 366.768 C 50.230 403.760, 79.580 439.092, 111.172 462.775 C 153.321 494.372, 197.205 510.808, 256.500 517.205 C 271.763 518.852, 312.146 518.837, 326.500 517.180 C 396.958 509.042, 447.882 479.489, 491.910 421.185 C 518.129 386.464, 535.538 342.959, 542.205 295.500 C 544.199 281.305, 543.844 242.752, 541.607 230.500 C 539.369 218.248, 535.867 205.944, 531.916 196.453 C 527.644 186.191, 525.580 183.808, 528.009 191.942 C 535.018 215.415, 530.798 246.975, 519.272 257.276 C 517.317 259.024, 517.229 258.884, 513.933 248.776 L 510.582 238.500 509.977 245.500 C 509.296 253.379, 506.723 260.883, 500.801 272.266 C 497.076 279.426, 495.929 280.671, 486.130 288.197 C 471.283 299.599, 454.799 316.489, 438.498 337 C 413.340 368.655, 405.916 377.825, 404.487 379.011 C 402.931 380.302, 420.883 351.099, 432.771 333 C 448.863 308.501, 466.194 288.244, 478.693 279.325 C 486.394 273.830, 487.228 272.636, 494.299 257 C 504.437 234.579, 511.958 207.390, 515.446 180.542 C 517.981 161.036, 517.850 159.995, 511.434 148.608 C 493.836 117.368, 472.480 92.774, 443.500 70.371 C 431.131 60.809, 422.784 55, 421.412 55 C 421.067 55, 423.331 57.750, 426.443 61.111 C 430.466 65.457, 433.648 70.441, 437.458 78.361 C 449.971 104.379, 454.756 128.592, 455.693 170.632 C 456.186 192.749, 456.034 196.709, 454.423 203.632 L 452.593 211.500 451.870 203 C 451.472 198.325, 450.458 191.575, 449.617 188 C 448.775 184.425, 446.697 173.175, 445 163 C 436.948 114.749, 424.818 79.909, 406.484 52.379 C 396.328 37.130, 390.165 30.608, 382.085 26.561 C 364.830 17.919, 338.223 9.832, 316 6.474 C 303.497 4.584, 266.644 3.743, 253 5.035 M 216.500 32.094 C 207.195 32.941, 188.070 36.554, 187.069 37.654 C 186.756 37.997, 188.341 37.997, 190.592 37.653 C 206.204 35.265, 233.545 36.086, 253.785 39.549 C 273.570 42.935, 300.215 51.936, 319.206 61.650 C 373.669 89.509, 420.762 144.709, 436.530 199.172 C 442.012 218.106, 443.410 230.622, 443.458 261.166 C 443.481 275.832, 443.636 287.696, 443.802 287.531 C 444.916 286.420, 449.991 265.866, 451.020 258.299 C 452.728 245.732, 451.814 221.361, 449.170 209 C 440.581 168.851, 413.948 125.641, 377.528 92.765 C 335.856 55.149, 292.636 35.570, 243.444 32.023 C 235.775 31.470, 228.600 31.075, 227.500 31.146 C 226.400 31.217, 221.450 31.644, 216.500 32.094 M 203.417 83.001 C 189 84.199, 171.988 87.433, 158.324 91.572 C 144.556 95.744, 132 100.779, 132 102.130 C 132 102.902, 140.649 118.561, 151.260 137 C 152.368 138.925, 156.978 147.498, 161.505 156.052 C 166.032 164.606, 170.208 172.481, 170.785 173.552 C 171.363 174.623, 172.964 177.750, 174.343 180.500 C 175.723 183.250, 180.489 192.250, 184.934 200.500 C 200.485 229.359, 226.192 281.973, 232.039 296.908 L 233.373 300.315 236.009 297.158 C 239.192 293.346, 240.968 293.226, 245.785 296.500 C 247.809 297.875, 250.169 299, 251.031 299 C 252.701 299, 258.497 295.373, 264.487 290.579 C 267.967 287.794, 268.358 287.710, 272.819 288.777 C 285.492 291.809, 300.174 291.005, 306.908 286.910 C 311.223 284.286, 314.431 277.111, 313.502 272.162 C 312.827 268.561, 312.839 268.544, 314.851 270.365 C 315.968 271.376, 317.320 274.261, 317.857 276.778 C 319.259 283.351, 317.578 287.626, 312 291.674 C 303.876 297.571, 302 299.141, 302 300.041 C 302 301.626, 340.829 300.393, 347 298.611 C 358.016 295.431, 353.613 297.997, 341.111 302.043 C 329.079 305.937, 311.097 308.980, 304.250 308.281 C 301.047 307.954, 299 308.137, 299 308.750 C 299 310.047, 310.474 312.950, 312.995 312.291 C 314.054 312.014, 316.417 312.712, 318.246 313.843 C 323.658 317.188, 344.572 321.058, 360.724 321.705 C 368.548 322.018, 374.745 322.604, 374.495 323.008 C 373.408 324.767, 344.177 325.097, 325.510 323.562 C 298.061 321.304, 299.068 321.115, 308 326.855 C 315.030 331.372, 323.752 339.581, 322.671 340.663 C 322.404 340.929, 320.816 340.439, 319.143 339.574 C 315.227 337.549, 311 337.509, 311 339.497 C 311 340.321, 312.516 342.683, 314.368 344.747 C 317.683 348.441, 322 355.919, 322 357.966 C 322 358.542, 320.087 357.623, 317.750 355.925 C 313.690 352.975, 313.486 352.930, 313.181 354.918 C 313.005 356.062, 314.467 360.210, 316.431 364.134 C 318.394 368.058, 320 372.647, 320 374.331 L 320 377.394 316.913 373.197 C 313.903 369.104, 312 367.898, 312 370.083 C 312 370.679, 312.924 374.785, 314.053 379.208 C 315.182 383.631, 315.956 388.206, 315.771 389.375 C 315.497 391.115, 315.014 390.697, 313.107 387.072 C 309.687 380.570, 308.583 383.580, 310.562 394.013 C 311.883 400.976, 311.933 404.572, 310.686 402.917 C 306.079 396.802, 306.029 396.760, 305.391 398.424 C 305.041 399.336, 305.682 402.507, 306.816 405.470 C 308.507 409.891, 308.640 411.054, 307.554 411.955 C 306.534 412.801, 305.774 412.333, 304.243 409.915 C 303.150 408.189, 302.020 407.164, 301.731 407.638 C 301.034 408.783, 299.612 424.643, 300.264 424 C 300.543 423.725, 303.185 420.277, 306.136 416.339 C 309.086 412.400, 313.270 407.771, 315.433 406.052 C 323.899 399.326, 339.108 394.038, 350 394.033 C 358.228 394.029, 358.013 395.058, 347.952 403.828 C 330.556 418.991, 311.140 431.381, 291.229 440.024 C 285.878 442.346, 281.082 444.632, 280.571 445.102 C 279.354 446.224, 296.793 441.435, 304.535 438.522 C 313.589 435.116, 319.654 431.829, 331.495 423.911 C 379.343 391.915, 411.026 328.968, 410.976 266 C 410.941 223.117, 398.319 186.165, 372.155 152.349 C 346.805 119.587, 315.467 99.345, 274.022 88.965 C 253.794 83.898, 223.458 81.336, 203.417 83.001 M 125.250 105.259 C 122.912 106.433, 121 107.798, 121 108.293 C 121 108.787, 121.921 110.485, 123.048 112.067 C 124.174 113.649, 127.349 119.793, 130.104 125.721 C 138.451 143.686, 139.233 144.898, 147.009 151.933 C 151.138 155.669, 157.629 161.935, 161.432 165.857 C 165.234 169.779, 168.557 172.776, 168.815 172.518 C 169.074 172.260, 168.816 171.475, 168.243 170.774 C 167.669 170.073, 163.752 162.975, 159.537 155 C 150.089 137.123, 130.680 103, 130 103.071 C 129.725 103.100, 127.588 104.085, 125.250 105.259 M 112.090 110.067 C 109.114 111.123, 106.476 112.191, 106.228 112.439 C 105.413 113.254, 118.318 127.022, 126.954 134.553 C 131.604 138.607, 135.580 141.753, 135.790 141.543 C 136.217 141.116, 124.122 116.305, 121.022 111.250 C 118.726 107.505, 119.148 107.561, 112.090 110.067 M 117.595 129.048 C 135.966 153.407, 143 162.129, 143 160.550 C 143 157.378, 139.063 148.266, 136.297 145.034 C 133.059 141.251, 115.441 126.191, 117.595 129.048 M 143.429 156.772 C 146.646 165.622, 147.763 167.502, 183.660 224.500 C 193.012 239.350, 205.518 259.583, 211.451 269.462 C 220.157 283.960, 229.834 299.484, 231.683 301.917 C 231.858 302.146, 232.236 302.098, 232.524 301.809 C 233.162 301.171, 226.306 285.872, 213.553 259.480 C 208.299 248.606, 204 239.537, 204 239.328 C 204 238.952, 194.917 221.770, 179.146 192.313 C 171.066 177.221, 170.929 177.041, 157.061 163.383 C 149.386 155.824, 142.466 149.281, 141.682 148.842 C 140.710 148.298, 141.266 150.819, 143.429 156.772 M 267.086 301.021 C 265.862 303.866, 265.005 306.336, 265.180 306.510 C 265.356 306.683, 268.650 305.751, 272.500 304.438 C 276.350 303.126, 280.647 302.040, 282.050 302.026 C 284.452 302.001, 287 300.410, 287 298.934 C 287 298.568, 283.962 298.012, 280.250 297.699 C 276.538 297.385, 272.558 296.841, 271.406 296.488 C 269.622 295.943, 268.982 296.614, 267.086 301.021 M 293.250 418.145 C 291.553 419.849, 291.679 422.259, 293.685 426.466 C 295.812 430.926, 297.498 431.095, 296.513 426.750 C 296.108 424.962, 295.489 422.013, 295.138 420.195 C 294.627 417.548, 294.251 417.140, 293.250 418.145 M 320 444.635 C 311.803 450.333, 288.249 461.910, 275.347 466.582 C 240.886 479.063, 203.983 481.748, 168.750 474.340 C 164.488 473.444, 161.002 472.438, 161.004 472.105 C 161.006 471.772, 162.918 470.700, 165.254 469.723 C 167.589 468.746, 171.075 466.634, 173 465.030 C 176.429 462.173, 176.459 462.082, 174.500 460.569 C 171.263 458.071, 163.097 456, 156.478 456 C 149.595 456, 137.066 458.892, 131.435 461.781 L 127.738 463.678 130.856 465.897 C 132.571 467.118, 137.692 469.858, 142.237 471.986 C 194.736 496.561, 257.733 488.129, 315.752 448.760 C 321.390 444.934, 326.254 441.398, 326.561 440.902 C 327.404 439.537, 327.013 439.760, 320 444.635" stroke="none" fill="inherit" fill-rule="evenodd"></path>
</g></svg><svg id="name" viewBox="0 0 101.4560546875 34.3876953125" width="101" height="34.23311932698694" x="96" y="21.058622818258357" data-v-719f541d="" style="fill: rgb(0, 0, 0);"><rect x="0" y="0" width="100%" height="100%" fill="none" data-v-719f541d=""></rect><g data-v-719f541d=""><path xmlns="http://www.w3.org/2000/svg" d="M10.13 33.94L0 33.94L0 1.24L10.06 1.24Q14.38 1.24 17.78 3.18Q21.18 5.12 23.09 8.70Q25.00 12.29 25.00 16.85L25.00 16.85L25.00 18.35Q25.00 22.91 23.12 26.46Q21.25 30.01 17.83 31.96Q14.42 33.92 10.13 33.94L10.13 33.94ZM10.06 6.69L6.74 6.69L6.74 28.53L10.00 28.53Q13.95 28.53 16.04 25.94Q18.13 23.36 18.17 18.55L18.17 18.55L18.17 16.82Q18.17 11.84 16.10 9.27Q14.04 6.69 10.06 6.69L10.06 6.69ZM43.21 9.48L43.13 15.72Q41.80 15.54 40.79 15.54L40.79 15.54Q37.11 15.54 35.96 18.04L35.96 18.04L35.96 33.94L29.47 33.94L29.47 9.64L35.60 9.64L35.78 12.53Q37.73 9.19 41.19 9.19L41.19 9.19Q42.27 9.19 43.21 9.48L43.21 9.48ZM66.21 33.94L59.66 33.94Q59.21 33.06 59.00 31.76L59.00 31.76Q56.65 34.39 52.87 34.39L52.87 34.39Q49.30 34.39 46.95 32.32Q44.61 30.25 44.61 27.11L44.61 27.11Q44.61 23.25 47.47 21.18Q50.33 19.11 55.75 19.09L55.75 19.09L58.74 19.09L58.74 17.70Q58.74 16.01 57.87 15.00Q57.01 13.99 55.14 13.99L55.14 13.99Q53.50 13.99 52.57 14.78Q51.64 15.57 51.64 16.94L51.64 16.94L45.15 16.94Q45.15 14.82 46.45 13.03Q47.75 11.23 50.13 10.21Q52.51 9.19 55.48 9.19L55.48 9.19Q59.97 9.19 62.61 11.44Q65.25 13.70 65.25 17.79L65.25 17.79L65.25 28.32Q65.27 31.78 66.21 33.56L66.21 33.56L66.21 33.94ZM54.29 29.42L54.29 29.42Q55.73 29.42 56.94 28.78Q58.15 28.14 58.74 27.07L58.74 27.07L58.74 22.89L56.31 22.89Q51.44 22.89 51.12 26.26L51.12 26.26L51.10 26.64Q51.10 27.85 51.95 28.64Q52.81 29.42 54.29 29.42ZM80.34 29.15L80.34 29.15Q82.14 29.15 83.26 28.17Q84.39 27.18 84.43 25.54L84.43 25.54L90.52 25.54Q90.50 28.01 89.17 30.06Q87.84 32.12 85.54 33.25Q83.24 34.39 80.46 34.39L80.46 34.39Q75.24 34.39 72.23 31.07Q69.22 27.76 69.22 21.92L69.22 21.92L69.22 21.50Q69.22 15.88 72.21 12.53Q75.20 9.19 80.41 9.19L80.41 9.19Q84.97 9.19 87.72 11.78Q90.47 14.38 90.52 18.69L90.52 18.69L84.43 18.69Q84.39 16.80 83.26 15.62Q82.14 14.44 80.30 14.44L80.30 14.44Q78.03 14.44 76.87 16.09Q75.72 17.74 75.72 21.45L75.72 21.45L75.72 22.12Q75.72 25.88 76.86 27.51Q78.01 29.15 80.34 29.15ZM101.07 9.64L101.07 33.94L94.56 33.94L94.56 9.64L101.07 9.64ZM94.18 3.35L94.18 3.35Q94.18 1.89 95.16 0.94Q96.13 0 97.82 0L97.82 0Q99.48 0 100.47 0.94Q101.46 1.89 101.46 3.35L101.46 3.35Q101.46 4.83 100.46 5.77Q99.46 6.72 97.82 6.72Q96.18 6.72 95.18 5.77Q94.18 4.83 94.18 3.35Z"></path></g></svg><!----></svg>